<?xml version="1.0" encoding="utf-8"?>
<svg version="1.0" width="759.000000pt" height="756.000000pt" viewBox="0 0 759.000000 756.000000" preserveAspectRatio="xMidYMid meet" xmlns="http://www.w3.org/2000/svg">
  <g transform="translate(0.000000,756.000000) scale(0.100000,-0.100000)" fill="#000000" stroke="none">
    <path d="M6226 7185 c-24 -22 -26 -30 -26 -109 l0 -86 -66 -30 c-75 -34 -66 -36 -151 42 -60 56 -87 60 -134 21 -62 -52 -254 -253 -261 -274 -12 -30 13 -78 70 -133 l50 -48 -22 -43 c-13 -23 -25 -52 -29 -64 -5 -19 -12 -21 -69 -21 -34 0 -80 -5 -100 -10 -65 -19 -68 -28 -68 -268 0 -213 0 -213 25 -237 22 -23 32 -25 110 -25 l85 0 30 -63 c17 -35 30 -68 30 -73 0 -5 -24 -34 -54 -63 -62 -62 -73 -90 -51 -133 13 -27 7 -24 -43 23 -90 85 -1511 1389 -1567 1438 -82 71 -138 95 -220 95 -56 0 -80 -5 -120 -26 -63 -33 -55 -25 -650 -573 -275 -253 -1022 -940 -1660 -1526 -1223 -1123 -1205 -1105 -1221 -1205 -8 -50 7 -107 45 -165 18 -29 276 -273 692 -656 365 -335 1130 -1038 1699 -1562 793 -729 1048 -958 1090 -979 44 -22 69 -27 125 -27 81 1 136 22 202 77 23 20 427 390 898 822 470 432 857 786 860 786 3 0 6 -294 7 -653 l3 -652 268 -3 267 -2 0 825 0 825 -90 0 -90 0 624 575 c344 316 638 594 654 617 62 92 67 156 20 248 -30 59 -87 114 -712 689 -373 344 -701 646 -728 670 l-50 44 28 15 c16 8 52 37 81 65 l52 50 68 -30 68 -29 5 -93 c7 -135 -1 -131 262 -131 131 0 217 4 230 11 30 16 48 71 48 148 l0 70 56 25 c31 14 61 26 67 26 6 0 37 -26 69 -57 48 -48 63 -57 93 -57 33 0 48 12 177 142 130 129 142 144 142 177 0 30 -9 45 -57 93 -31 32 -57 63 -57 69 0 11 20 56 49 113 6 11 32 16 100 20 135 7 131 -1 131 259 0 146 -4 213 -13 231 -16 33 -66 49 -152 49 l-71 1 -28 66 -29 66 56 56 c62 65 74 91 55 126 -7 13 -70 83 -140 155 -121 124 -129 131 -167 131 -39 0 -43 -2 -133 -88 l-28 -26 -60 29 -60 29 -1 65 c0 83 -17 132 -49 148 -18 9 -85 13 -231 13 -205 0 -206 0 -233 -25z m264 -65 l159 0 3 -96 c2 -74 7 -99 18 -104 105 -52 192 -90 208 -90 11 0 41 25 71 60 29 33 58 60 64 60 15 0 227 -211 227 -225 0 -6 -27 -37 -60 -70 -33 -33 -60 -67 -60 -77 0 -9 15 -48 34 -85 18 -37 37 -79 41 -93 14 -47 22 -50 126 -50 l99 0 0 -185 0 -184 -97 -3 c-93 -3 -98 -4 -109 -28 -6 -14 -28 -60 -48 -103 -20 -42 -36 -85 -36 -95 0 -10 27 -44 60 -77 33 -33 60 -64 60 -70 0 -12 -211 -225 -224 -225 -5 0 -37 27 -72 60 -34 33 -70 60 -79 60 -14 0 -105 -40 -205 -90 -11 -5 -16 -30 -18 -104 l-3 -96 -184 0 -184 0 -3 97 c-3 93 -4 98 -28 109 -14 6 -60 28 -103 48 -42 20 -85 36 -95 36 -10 0 -44 -27 -77 -60 -33 -33 -64 -60 -70 -60 -6 0 -61 51 -123 113 l-112 112 65 65 c36 35 65 72 65 81 0 14 -53 139 -89 209 -6 11 -31 16 -105 18 l-96 3 0 184 0 185 94 0 c87 0 96 2 110 22 9 12 16 29 16 37 0 8 16 45 35 82 19 38 35 77 35 88 0 12 -29 51 -65 89 l-64 69 116 111 117 111 67 -64 c37 -36 73 -65 81 -65 8 0 49 18 92 40 42 22 85 40 95 40 33 0 41 21 41 116 0 93 6 108 38 98 8 -2 85 -4 172 -4z m-2976 -2586 c14 -6 16 -88 16 -830 l0 -824 -115 0 -116 0 -164 164 -165 165 0 498 0 497 168 168 168 168 96 0 c53 0 103 -3 112 -6z m851 -164 l165 -165 0 -168 0 -167 -277 2 -278 3 -3 163 -2 162 -180 0 -180 0 0 164 c0 122 3 166 13 170 6 2 139 4 294 3 l283 -2 165 -165z m165 -1042 l0 -122 -162 -163 -162 -163 -298 0 -298 0 0 165 0 165 180 0 180 0 0 113 c0 63 3 117 7 120 3 4 129 7 280 7 l273 0 0 -122z" style="fill: rgb(43, 136, 179);"/>
    <path d="M6397 6618 c-191 -19 -359 -185 -386 -383 -22 -152 24 -290 131 -397 180 -180 467 -179 648 2 182 182 182 472 1 650 -108 105 -229 145 -394 128z m192 -99 c114 -43 189 -118 232 -231 17 -46 20 -73 17 -140 -4 -107 -36 -179 -112 -252 -199 -195 -527 -114 -617 152 -81 241 97 490 351 492 52 0 91 -6 129 -21z" style="fill: rgb(43, 136, 179);"/>
    <path d="M210 6105 l0 -825 270 0 270 0 0 825 0 825 -270 0 -270 0 0 -825z" style="fill: rgb(43, 136, 179);"/>
    <path d="M848 6765 l3 -165 202 -2 202 -3 3 -470 c1 -258 0 -480 -3 -492 -5 -23 -6 -23 -205 -23 l-200 0 0 -165 0 -165 308 0 307 0 168 168 167 167 0 494 0 495 -162 163 -162 163 -316 0 -315 0 3 -165z" style="fill: rgb(43, 136, 179);"/>
    <path d="M6370 2270 l0 -160 193 0 c105 0 198 -4 205 -8 9 -7 12 -50 10 -183 l-3 -174 -202 -3 -203 -2 0 -140 0 -140 203 -2 202 -3 0 -170 0 -170 -202 -3 -203 -2 0 -165 0 -165 312 0 312 0 168 168 168 168 0 150 0 150 -86 88 -86 88 86 87 86 86 0 165 0 165 -168 168 -167 167 -313 0 -312 0 0 -160z" style="fill: rgb(43, 136, 179);"/>
    <path d="M277 2343 c-149 -50 -236 -243 -207 -459 6 -46 27 -128 46 -182 19 -53 50 -140 69 -192 46 -128 56 -201 48 -350 -15 -304 58 -705 146 -799 48 -52 80 -59 120 -26 53 45 56 71 53 394 -3 320 2 363 54 440 53 81 161 106 252 59 38 -20 53 -36 78 -85 47 -90 58 -174 45 -341 -23 -285 -9 -413 49 -464 70 -63 145 8 199 187 45 153 63 305 70 605 l7 285 67 173 c80 208 102 306 93 412 -15 184 -96 309 -225 347 -74 21 -141 13 -276 -33 -96 -32 -122 -37 -200 -37 -78 0 -108 6 -218 42 -140 45 -193 50 -270 24z" style="fill: rgb(43, 136, 179);"/>
  </g>
</svg>